<?xml version="1.0" standalone="no"?>
<!DOCTYPE svg PUBLIC "-//W3C//DTD SVG 20010904//EN"
 "http://www.w3.org/TR/2001/REC-SVG-20010904/DTD/svg10.dtd">
<svg version="1.0" xmlns="http://www.w3.org/2000/svg"
 width="1209.000000pt" height="202.000000pt" viewBox="0 0 1209.000000 202.000000"
 preserveAspectRatio="xMidYMid meet">
<metadata>
Created by potrace 1.15, written by Peter Selinger 2001-2017
</metadata>
<g transform="translate(0.000000,202.000000) scale(0.100000,-0.100000)"
fill="#000000" stroke="none">
<path d="M655 1524 c-57 -30 -55 -12 -55 -500 0 -249 3 -460 6 -469 16 -41
118 -59 173 -31 44 23 51 53 51 216 l0 148 29 7 c17 3 38 2 49 -4 10 -5 54
-58 97 -118 177 -243 198 -263 283 -263 55 0 100 18 115 47 l13 24 13 -25 c34
-63 187 -60 221 3 5 11 10 87 10 173 l1 153 39 -80 c89 -179 290 -307 485
-308 181 -1 372 99 476 249 132 192 107 451 -60 623 -62 64 -119 100 -223 142
-63 26 -82 29 -182 29 -88 0 -122 -4 -165 -20 -165 -63 -260 -145 -331 -285
l-40 -80 0 153 c0 86 -5 162 -10 173 -12 22 -80 59 -109 59 -38 0 -106 -37
-119 -64 -9 -20 -12 -137 -12 -443 l0 -415 -57 75 c-32 41 -65 85 -73 97 -8
12 -32 45 -54 72 -21 27 -37 50 -35 52 2 2 28 16 57 31 138 74 192 253 122
399 -35 74 -61 104 -121 139 -75 43 -154 56 -369 56 -159 0 -201 -2 -225 -15z
m1674 -53 c194 -52 342 -219 357 -401 17 -201 -78 -369 -260 -460 -80 -39 -92
-42 -190 -47 -154 -8 -222 8 -331 79 -139 90 -221 279 -194 449 28 177 166
330 337 374 30 8 58 17 61 20 9 10 172 -1 220 -14z m-1114 -25 c52 -32 86 -69
107 -116 63 -140 9 -289 -129 -357 -83 -41 -82 -49 26 -191 164 -214 162 -206
70 -210 l-66 -3 -64 84 c-35 47 -71 95 -79 107 -36 54 -102 137 -127 162 -24
24 -36 28 -84 28 -45 0 -60 -4 -77 -23 -20 -21 -22 -35 -24 -187 l-3 -165 -54
-3 c-37 -2 -57 1 -62 10 -10 15 -12 848 -3 873 6 15 33 16 273 13 241 -3 270
-5 296 -22z m383 12 c14 -14 17 -854 3 -876 -5 -9 -26 -12 -67 -10 l-59 3 -3
435 c-1 239 0 441 3 448 6 16 107 16 123 0z"/>
<path d="M3295 1516 l-25 -25 0 -465 c0 -255 3 -472 6 -481 4 -9 24 -25 45
-35 35 -19 60 -20 340 -20 288 0 303 1 335 21 19 11 34 25 34 31 0 5 16 -4 35
-21 33 -29 41 -31 108 -31 104 0 140 29 212 173 l29 57 15 -27 c7 -16 17 -30
21 -33 3 -3 13 -21 20 -40 8 -19 36 -56 62 -82 l47 -48 72 0 c72 0 127 21 146
55 6 10 17 6 47 -21 36 -32 43 -34 108 -34 106 0 141 28 213 170 l27 54 19
-25 c11 -13 33 -49 48 -79 16 -31 46 -70 67 -88 34 -29 43 -32 108 -32 60 0
77 4 108 25 20 14 40 35 43 47 7 20 8 20 20 -8 22 -54 40 -64 111 -64 121 0
134 23 134 244 l0 154 178 4 c171 3 179 4 230 31 l52 27 0 -201 0 -201 29 -29
29 -29 349 0 c283 0 352 3 369 14 17 12 22 12 39 0 19 -14 129 -20 160 -8 37
14 45 57 45 229 l0 165 45 0 c51 0 47 5 215 -227 118 -162 133 -173 229 -173
61 0 75 3 94 23 l22 22 22 -22 c19 -20 33 -23 92 -23 62 0 73 3 96 25 l25 26
0 475 0 475 -25 24 c-21 22 -33 25 -94 25 -38 0 -77 -3 -86 -6 -30 -12 -45
-60 -46 -146 0 -60 -3 -75 -9 -56 -21 72 -85 140 -170 183 -49 25 -51 25 -329
25 -221 0 -282 -3 -293 -13 -11 -12 -16 -12 -26 0 -10 10 -83 13 -373 13
l-360 0 -25 -25 -25 -25 -49 25 c-49 25 -51 25 -329 25 -256 0 -281 -2 -301
-18 -23 -18 -24 -18 -42 0 -16 16 -35 18 -157 18 -159 0 -156 1 -197 -86 -14
-30 -29 -54 -34 -54 -5 0 -25 29 -45 64 -20 35 -42 67 -50 70 -8 3 -145 5
-305 5 -283 0 -290 0 -310 -21 -11 -12 -23 -30 -26 -41 -3 -11 -15 -35 -27
-54 l-20 -35 -39 71 c-26 47 -47 73 -62 77 -12 3 -83 3 -157 1 -73 -3 -138 -5
-144 -5 -5 1 -164 3 -353 5 l-342 4 -25 -25z m1034 -81 c14 -27 28 -52 31 -55
3 -3 13 -22 22 -42 23 -49 48 -49 70 0 9 20 31 63 49 95 l31 57 118 0 118 0
-10 -37 c-6 -21 -37 -84 -69 -140 -33 -56 -59 -106 -59 -112 0 -5 -3 -11 -7
-13 -5 -1 -16 -19 -26 -38 -10 -19 -25 -48 -33 -63 -12 -22 -13 -34 -4 -62 6
-19 16 -35 21 -35 5 0 9 -5 9 -12 0 -6 27 -57 60 -114 33 -56 60 -107 60 -113
0 -5 6 -16 13 -23 21 -23 37 -68 37 -108 0 -52 -35 -80 -99 -80 -81 0 -112 33
-198 212 -17 36 -34 57 -43 55 -8 -1 -43 -52 -77 -112 -76 -133 -99 -155 -169
-155 -41 0 -57 5 -79 26 -41 38 -32 85 44 217 33 60 61 113 61 118 0 5 4 9 8
9 5 0 16 17 25 38 8 20 25 53 37 72 l22 36 -47 79 c-26 43 -51 88 -56 99 -5
12 -17 35 -28 51 -45 74 -91 170 -91 189 0 20 3 21 116 16 l117 -5 26 -50z
m759 42 c5 -7 25 -41 43 -77 18 -36 37 -66 41 -68 4 -2 8 -10 8 -18 0 -25 35
-15 47 14 12 27 80 152 87 160 2 2 55 3 118 4 102 0 113 -2 116 -19 1 -10 -29
-73 -68 -140 -38 -68 -70 -125 -70 -127 0 -2 -18 -36 -41 -76 -37 -66 -39 -74
-29 -106 6 -19 16 -34 21 -34 5 0 9 -5 9 -11 0 -5 27 -57 60 -114 33 -57 60
-109 60 -114 0 -6 3 -11 8 -11 11 0 52 -95 52 -123 0 -40 -52 -77 -108 -77
-82 0 -110 31 -199 212 -16 34 -34 57 -42 55 -7 -1 -42 -51 -77 -112 -34 -60
-76 -120 -91 -132 -53 -43 -165 -22 -179 33 -11 41 2 74 73 199 38 66 82 146
98 178 16 31 33 57 37 57 17 0 6 32 -41 113 -27 47 -52 95 -56 106 -3 12 -11
21 -16 21 -5 0 -9 5 -9 12 0 6 -18 43 -41 80 -22 38 -43 83 -46 101 l-5 32
115 -3 c74 -2 119 -7 125 -15z m-1110 -64 l3 -73 -209 0 c-248 0 -268 -3 -287
-41 -31 -59 -13 -182 28 -193 12 -3 101 -6 197 -6 96 0 181 -4 188 -9 9 -5 12
-30 10 -87 l-3 -79 -202 -5 c-111 -3 -203 -7 -206 -10 -28 -31 -36 -119 -16
-163 19 -42 46 -47 279 -47 l220 0 0 -70 0 -70 -327 2 -328 3 -2 449 c-2 318
1 453 9 463 9 11 73 13 327 11 l316 -3 3 -72z m2254 53 c29 -13 66 -37 82 -55
36 -38 61 -41 52 -7 -3 13 -3 38 0 55 l7 31 346 -2 346 -3 3 -71 c3 -67 1 -72
-20 -78 -13 -3 -126 -6 -252 -6 -278 0 -266 5 -266 -116 0 -117 -6 -114 240
-114 143 0 201 -3 214 -13 14 -10 16 -25 14 -87 l-3 -75 -217 -5 c-256 -6
-247 -2 -248 -115 0 -102 -8 -99 290 -105 l245 -5 3 -63 c2 -38 -2 -69 -9 -78
-9 -12 -70 -14 -345 -14 l-334 0 -11 27 c-6 17 -9 116 -7 260 2 128 0 233 -4
233 -3 0 -19 -13 -35 -29 -16 -15 -51 -40 -78 -55 -48 -25 -55 -26 -220 -26
-152 0 -173 -2 -202 -20 l-33 -20 0 -174 c0 -198 0 -199 -77 -194 l-48 3 -3
473 -2 472 260 0 c251 0 261 -1 312 -24z m1484 3 c53 -23 117 -85 132 -128 38
-107 39 -118 15 -202 -21 -76 -72 -135 -147 -172 -48 -24 -56 -32 -56 -55 0
-16 10 -42 23 -59 12 -17 29 -41 37 -53 8 -13 25 -35 36 -49 12 -14 47 -61 78
-105 64 -89 63 -106 -8 -106 -72 0 -83 8 -166 119 -43 58 -83 111 -87 116 -5
6 -30 40 -57 77 -59 80 -98 103 -162 93 -72 -10 -79 -29 -81 -223 -2 -90 -5
-168 -8 -173 -9 -13 -99 -11 -113 3 -9 9 -12 127 -12 468 0 251 3 460 7 463 3
4 122 7 263 7 241 0 261 -1 306 -21z m398 5 c3 -9 6 -217 6 -463 0 -334 -3
-450 -12 -459 -7 -7 -31 -12 -54 -12 -81 0 -74 -42 -74 474 0 255 3 466 7 469
3 4 32 7 64 7 43 0 58 -4 63 -16z m-2514 -421 l-1 -388 -22 45 c-12 25 -39 75
-60 112 -21 36 -49 86 -62 110 -14 23 -34 62 -46 85 l-22 41 40 69 c22 37 43
75 47 83 4 8 25 47 47 85 22 39 48 87 57 107 9 21 18 38 20 38 1 0 2 -174 2
-387z m-755 297 c14 -27 56 -104 95 -171 l71 -122 -37 -71 c-20 -39 -42 -78
-49 -86 -7 -8 -27 -42 -43 -75 -17 -33 -41 -77 -54 -97 l-23 -38 -20 38 c-10
20 -45 82 -76 138 -32 55 -67 121 -79 145 l-22 46 62 113 c103 189 133 239
142 234 5 -3 19 -27 33 -54z m-778 -7 c11 -21 52 -94 91 -162 l71 -125 -39
-70 c-22 -39 -55 -100 -74 -136 -63 -119 -82 -145 -92 -128 -20 34 -51 38
-273 38 l-221 0 0 55 0 55 180 0 c246 0 260 8 260 144 0 41 -3 82 -6 91 -15
38 -56 45 -249 45 l-185 0 0 65 0 65 226 0 226 0 29 29 c16 16 29 39 29 50 0
30 5 26 27 -16z m3011 -587 c-2 -1 -112 0 -245 2 l-243 3 0 50 0 49 190 0
c204 0 232 5 264 52 21 29 22 148 2 187 -24 46 -50 51 -261 51 l-195 0 0 65 0
65 243 2 242 3 3 -264 c1 -145 1 -264 0 -265z m842 117 l-1 -248 -20 25 c-11
14 -47 61 -80 105 -33 44 -66 88 -74 97 -36 44 -36 54 2 72 19 9 50 28 69 42
37 28 94 112 94 137 0 10 2 17 5 17 3 0 5 -111 5 -247z"/>
<path d="M8209 1511 l-29 -29 0 -451 c0 -328 3 -457 12 -476 7 -15 29 -35 50
-46 34 -17 61 -19 313 -19 257 0 278 1 315 20 22 11 40 25 40 31 0 6 11 2 24
-8 13 -11 42 -25 64 -32 35 -12 46 -11 87 4 77 30 79 37 85 295 l5 225 22 -35
c22 -36 77 -117 90 -135 5 -5 44 -64 88 -130 114 -172 133 -195 183 -216 55
-24 89 -24 146 0 61 27 79 63 86 176 l5 90 22 -40 c47 -88 174 -186 293 -226
74 -25 206 -25 280 0 55 19 150 70 183 99 16 14 17 13 17 -12 0 -43 18 -66 67
-87 40 -17 70 -19 313 -19 223 0 274 3 306 16 22 9 42 21 46 28 4 6 8 50 8 97
0 130 14 123 -252 129 l-223 5 -3 48 -3 47 166 0 c145 0 171 2 204 20 21 10
41 26 45 35 8 21 8 168 0 190 -15 37 -56 45 -234 45 l-170 0 0 60 0 60 188 0
c197 0 255 9 272 40 5 10 10 53 10 95 0 73 -10 111 -34 127 -6 4 -154 8 -329
8 l-319 0 -29 -29 c-19 -20 -29 -40 -29 -60 l0 -30 -66 41 c-119 71 -142 78
-276 78 -118 0 -121 -1 -202 -38 -92 -44 -170 -110 -218 -184 l-33 -51 -6 84
c-7 104 -21 143 -64 169 -66 41 -182 11 -205 -54 -6 -16 -10 -124 -10 -244 l0
-215 -30 44 c-17 24 -66 96 -108 159 -42 63 -79 117 -82 120 -4 3 -29 41 -58
85 -64 98 -104 125 -189 125 -45 0 -67 -5 -92 -23 l-34 -23 -23 23 -23 23
-316 0 -317 0 -29 -29z m653 -38 c21 -19 26 -111 6 -131 -9 -9 -73 -12 -227
-12 -207 0 -216 -1 -238 -22 -20 -19 -23 -31 -23 -93 0 -112 -6 -109 219 -115
118 -3 194 -9 201 -16 7 -7 10 -41 8 -85 l-3 -74 -197 -5 c-230 -6 -227 -4
-227 -105 0 -102 -7 -99 252 -105 122 -3 228 -9 235 -13 13 -9 17 -104 4 -125
-7 -9 -77 -12 -321 -10 l-312 3 1 454 c0 249 3 457 6 462 3 5 138 9 301 9 262
0 299 -2 315 -17z m1531 -3 c34 -11 87 -38 117 -59 67 -46 74 -74 34 -126 -42
-56 -54 -59 -109 -24 -62 39 -141 69 -185 69 -37 0 -130 -30 -158 -51 -49 -37
-87 -79 -110 -124 -36 -69 -38 -197 -4 -266 84 -172 283 -227 440 -123 30 20
63 34 75 32 25 -4 76 -73 77 -105 0 -20 -36 -55 -100 -95 -36 -22 -172 -58
-220 -58 -64 0 -191 40 -248 77 -157 104 -233 286 -204 485 6 45 16 84 20 87
5 3 14 21 20 40 23 66 99 150 186 205 90 57 255 73 369 36z m881 4 c19 -19 22
-114 4 -132 -9 -9 -73 -12 -227 -12 -263 0 -251 6 -251 -121 0 -77 2 -90 19
-99 12 -6 94 -10 198 -10 126 0 183 -4 191 -12 12 -12 17 -124 6 -152 -5 -14
-32 -16 -194 -16 -228 0 -222 3 -218 -108 4 -103 0 -102 251 -102 117 0 206
-4 218 -10 15 -9 19 -21 19 -63 0 -29 -4 -58 -8 -65 -7 -9 -77 -12 -318 -10
l-309 3 -3 449 c-1 323 1 453 9 462 9 11 69 14 305 14 253 0 295 -2 308 -16z
m-2127 -30 c12 -16 85 -121 160 -234 76 -113 140 -207 143 -210 3 -3 22 -31
44 -62 24 -36 46 -58 57 -58 18 0 19 13 19 283 0 160 4 288 10 297 12 20 110
20 133 1 15 -12 17 -55 17 -438 0 -273 -4 -431 -10 -444 -9 -16 -22 -19 -85
-19 -63 0 -77 3 -94 21 -18 19 -65 89 -311 453 -53 78 -82 112 -98 114 l-22 3
0 -283 c0 -208 -3 -287 -12 -296 -7 -7 -38 -12 -70 -12 -47 0 -59 4 -68 20 -7
12 -9 163 -8 447 l3 427 25 14 c15 8 48 11 84 9 51 -3 62 -7 83 -33z m-247
-429 c0 -269 0 -275 -19 -265 -12 6 -104 10 -230 10 l-211 0 0 50 0 50 165 0
c146 0 170 2 205 20 32 16 41 28 51 63 10 39 7 125 -7 162 -15 37 -56 45 -239
45 l-175 0 0 60 0 60 198 1 c108 1 208 5 222 9 14 4 28 8 33 9 4 1 7 -123 7
-274z m1485 215 c95 -53 142 -52 187 4 17 20 18 10 18 -211 0 -128 -2 -233 -4
-233 -2 0 -20 16 -39 35 -44 44 -69 44 -135 -1 -96 -64 -153 -76 -237 -47 -56
19 -97 51 -134 108 -23 36 -26 50 -26 130 0 73 4 98 22 130 44 83 113 123 212
124 56 1 72 -4 136 -39z"/>
</g>
</svg>
